<?xml version="1.0" encoding="utf-8"?>
<!-- Generator: Adobe Illustrator 25.3.1, SVG Export Plug-In . SVG Version: 6.00 Build 0)  -->
<svg version="1.1" id="Layer_1" xmlns="http://www.w3.org/2000/svg" xmlns:xlink="http://www.w3.org/1999/xlink" x="0px" y="0px"
	 viewBox="0 0 100 120" style="enable-background:new 0 0 100 120;" xml:space="preserve">
<style type="text/css">
	.st0{fill:#2C466A;}
</style>
<g>
	<g>
		<path class="st0" d="M22.2,70.16c-2.03,0-3.69-1.65-3.69-3.69c0-2.03,1.65-3.69,3.69-3.69c2.03,0,3.69,1.65,3.69,3.69
			C25.89,68.51,24.23,70.16,22.2,70.16z M22.2,64.17c-1.27,0-2.3,1.03-2.3,2.3c0,1.27,1.03,2.3,2.3,2.3c1.27,0,2.3-1.03,2.3-2.3
			C24.5,65.2,23.47,64.17,22.2,64.17z"/>
		<path class="st0" d="M32.24,57.84c-2.03,0-3.69-1.65-3.69-3.69c0-2.03,1.65-3.69,3.69-3.69c2.03,0,3.69,1.65,3.69,3.69
			C35.93,56.18,34.28,57.84,32.24,57.84z M32.24,51.84c-1.27,0-2.3,1.03-2.3,2.3c0,1.27,1.03,2.3,2.3,2.3c1.27,0,2.3-1.03,2.3-2.3
			C34.55,52.88,33.51,51.84,32.24,51.84z"/>
		<path class="st0" d="M42.28,66.46c-2.03,0-3.69-1.65-3.69-3.69c0-2.03,1.65-3.69,3.69-3.69s3.69,1.65,3.69,3.69
			C45.97,64.8,44.32,66.46,42.28,66.46z M42.28,60.46c-1.27,0-2.3,1.03-2.3,2.3c0,1.27,1.03,2.3,2.3,2.3s2.3-1.03,2.3-2.3
			C44.59,61.5,43.55,60.46,42.28,60.46z"/>
		<path class="st0" d="M52.33,49.55c-2.03,0-3.69-1.65-3.69-3.69c0-2.03,1.65-3.69,3.69-3.69c2.03,0,3.69,1.65,3.69,3.69
			C56.02,47.9,54.36,49.55,52.33,49.55z M52.33,43.56c-1.27,0-2.3,1.03-2.3,2.3c0,1.27,1.03,2.3,2.3,2.3c1.27,0,2.3-1.03,2.3-2.3
			C54.63,44.59,53.6,43.56,52.33,43.56z"/>
		<path class="st0" d="M62.37,57.95c-2.03,0-3.69-1.65-3.69-3.69c0-2.03,1.65-3.69,3.69-3.69c2.03,0,3.69,1.65,3.69,3.69
			C66.06,56.3,64.4,57.95,62.37,57.95z M62.37,51.96c-1.27,0-2.3,1.03-2.3,2.3c0,1.27,1.03,2.3,2.3,2.3c1.27,0,2.3-1.03,2.3-2.3
			C64.67,52.99,63.64,51.96,62.37,51.96z"/>
		<path class="st0" d="M72.41,41.77c-2.03,0-3.69-1.65-3.69-3.69c0-2.03,1.65-3.69,3.69-3.69c2.03,0,3.69,1.65,3.69,3.69
			C76.1,40.12,74.45,41.77,72.41,41.77z M72.41,35.78c-1.27,0-2.3,1.03-2.3,2.3c0,1.27,1.03,2.3,2.3,2.3c1.27,0,2.3-1.03,2.3-2.3
			C74.71,36.81,73.68,35.78,72.41,35.78z"/>
		<path class="st0" d="M24.09,64.84c-0.15,0-0.31-0.05-0.44-0.16c-0.3-0.24-0.34-0.68-0.1-0.97l6.26-7.68
			c0.24-0.3,0.68-0.34,0.97-0.1c0.3,0.24,0.34,0.68,0.1,0.97l-6.26,7.68C24.49,64.76,24.29,64.84,24.09,64.84z"/>
		<path class="st0" d="M40.06,61.45c-0.16,0-0.32-0.05-0.45-0.16l-5.53-4.68c-0.29-0.25-0.33-0.68-0.08-0.98
			c0.25-0.29,0.68-0.33,0.98-0.08l5.53,4.68c0.29,0.25,0.33,0.68,0.08,0.98C40.46,61.36,40.26,61.45,40.06,61.45z"/>
		<path class="st0" d="M43.73,60.83c-0.12,0-0.24-0.03-0.36-0.1c-0.33-0.2-0.43-0.62-0.24-0.95l7.05-11.71
			c0.2-0.33,0.62-0.43,0.95-0.24c0.33,0.2,0.43,0.62,0.24,0.95L44.32,60.5C44.19,60.71,43.96,60.83,43.73,60.83z"/>
		<path class="st0" d="M60.19,52.9c-0.15,0-0.31-0.05-0.43-0.15l-5.53-4.46c-0.3-0.24-0.34-0.68-0.1-0.97
			c0.24-0.3,0.68-0.34,0.97-0.1l5.53,4.46c0.3,0.24,0.34,0.68,0.1,0.97C60.59,52.81,60.39,52.9,60.19,52.9z"/>
		<path class="st0" d="M63.23,52.08c-0.14,0-0.27-0.04-0.39-0.12c-0.31-0.22-0.39-0.65-0.18-0.96l7.48-10.84
			c0.22-0.31,0.65-0.39,0.96-0.18c0.31,0.22,0.39,0.65,0.18,0.96L63.8,51.78C63.66,51.98,63.45,52.08,63.23,52.08z"/>
	</g>
	<g>
		<path class="st0" d="M54.3,21.98H27.27c-0.38,0-0.69-0.31-0.69-0.69s0.31-0.69,0.69-0.69H54.3c0.38,0,0.69,0.31,0.69,0.69
			S54.68,21.98,54.3,21.98z"/>
		<path class="st0" d="M54.3,28.71H37.26c-0.38,0-0.69-0.31-0.69-0.69s0.31-0.69,0.69-0.69H54.3c0.38,0,0.69,0.31,0.69,0.69
			S54.68,28.71,54.3,28.71z"/>
		<path class="st0" d="M33.31,28.71h-6.04c-0.38,0-0.69-0.31-0.69-0.69s0.31-0.69,0.69-0.69h6.04c0.38,0,0.69,0.31,0.69,0.69
			S33.7,28.71,33.31,28.71z"/>
		<path class="st0" d="M37.58,42.17h-10.3c-0.38,0-0.69-0.31-0.69-0.69s0.31-0.69,0.69-0.69h10.3c0.38,0,0.69,0.31,0.69,0.69
			S37.96,42.17,37.58,42.17z"/>
		<path class="st0" d="M47.88,35.44h-20.6c-0.38,0-0.69-0.31-0.69-0.69s0.31-0.69,0.69-0.69h20.6c0.38,0,0.69,0.31,0.69,0.69
			S48.26,35.44,47.88,35.44z"/>
	</g>
	<path class="st0" d="M19.2,59.82c-0.38,0-0.69-0.31-0.69-0.69V12.88c0-0.38,0.31-0.69,0.69-0.69h43.16c0.38,0,0.69,0.31,0.69,0.69
		v25.23c0,0.38-0.31,0.69-0.69,0.69s-0.69-0.31-0.69-0.69V13.58H19.9v45.55C19.9,59.51,19.59,59.82,19.2,59.82z"/>
	<g>
		<path class="st0" d="M66.38,68.66c-0.38,0-0.69-0.31-0.69-0.69v-6.38c0-0.38,0.31-0.69,0.69-0.69c0.38,0,0.69,0.31,0.69,0.69v6.38
			C67.07,68.34,66.76,68.66,66.38,68.66z"/>
		<path class="st0" d="M70.82,68.66c-0.38,0-0.69-0.31-0.69-0.69v-4.72c0-0.38,0.31-0.69,0.69-0.69c0.38,0,0.69,0.31,0.69,0.69v4.72
			C71.51,68.34,71.2,68.66,70.82,68.66z"/>
		<path class="st0" d="M75.26,68.66c-0.38,0-0.69-0.31-0.69-0.69V53.49c0-0.38,0.31-0.69,0.69-0.69c0.38,0,0.69,0.31,0.69,0.69
			v14.47C75.95,68.34,75.64,68.66,75.26,68.66z"/>
		<path class="st0" d="M79.7,68.66c-0.38,0-0.69-0.31-0.69-0.69V57.51c0-0.38,0.31-0.69,0.69-0.69c0.38,0,0.69,0.31,0.69,0.69v10.45
			C80.39,68.34,80.08,68.66,79.7,68.66z"/>
		<path class="st0" d="M84.14,68.66c-0.38,0-0.69-0.31-0.69-0.69V44.02c0-0.38,0.31-0.69,0.69-0.69c0.38,0,0.69,0.31,0.69,0.69
			v23.94C84.83,68.34,84.52,68.66,84.14,68.66z"/>
	</g>
	<g>
		<path class="st0" d="M76.14,22.74c-0.18,0-0.36-0.07-0.49-0.2l-2.01-2.01c-0.27-0.27-0.27-0.71,0-0.98c0.27-0.27,0.71-0.27,0.98,0
			l1.52,1.52l3.54-3.54c0.27-0.27,0.71-0.27,0.98,0c0.27,0.27,0.27,0.71,0,0.98l-4.03,4.03C76.5,22.66,76.33,22.74,76.14,22.74z"/>
		<path class="st0" d="M84.14,27.87H69.84c-0.38,0-0.69-0.31-0.69-0.69V12.88c0-0.38,0.31-0.69,0.69-0.69h14.29
			c0.38,0,0.69,0.31,0.69,0.69v14.29C84.83,27.56,84.52,27.87,84.14,27.87z M70.54,26.48h12.91V13.58H70.54V26.48z"/>
	</g>
	<g>
		<g>
			<path class="st0" d="M66.76,85.46c-0.15,0-0.3-0.05-0.42-0.14c-0.3-0.23-0.36-0.67-0.13-0.97c2.43-3.16,3.77-7.1,3.77-11.11
				c0-0.38,0.31-0.69,0.69-0.69c0.38,0,0.69,0.31,0.69,0.69c0,4.31-1.44,8.55-4.05,11.95C67.17,85.37,66.97,85.46,66.76,85.46z"/>
			<path class="st0" d="M51.72,92.87c-2.36,0-4.66-0.42-6.88-1.25c-2.63-0.99-4.98-2.5-6.98-4.5c-3.71-3.71-5.75-8.64-5.75-13.88
				c0-0.38,0.31-0.69,0.69-0.69s0.69,0.31,0.69,0.69c0,4.87,1.9,9.45,5.34,12.9c1.86,1.86,4.04,3.27,6.49,4.18
				c2.36,0.88,4.84,1.27,7.37,1.13c0.38-0.02,0.71,0.27,0.73,0.66c0.02,0.38-0.27,0.71-0.66,0.73
				C52.43,92.86,52.07,92.87,51.72,92.87z"/>
			<path class="st0" d="M57.37,92.02c-0.3,0-0.57-0.19-0.66-0.49c-0.11-0.37,0.09-0.75,0.46-0.87c1.72-0.53,3.35-1.32,4.84-2.34
				c0.42-0.29,0.83-0.59,1.23-0.92c0.3-0.24,0.73-0.2,0.97,0.1c0.24,0.3,0.2,0.73-0.1,0.97c-0.43,0.35-0.87,0.68-1.32,0.99
				c-1.6,1.09-3.36,1.94-5.21,2.52C57.51,92.01,57.44,92.02,57.37,92.02z"/>
		</g>
		<path class="st0" d="M55.32,106.4h-7.31c-1.57,0-2.85-1.28-2.85-2.85V98.7c-2.43-0.62-4.75-1.58-6.9-2.85l-3.42,3.42
			c-0.54,0.54-1.26,0.84-2.02,0.84c-0.76,0-1.48-0.3-2.02-0.84l-5.17-5.17c-0.54-0.54-0.84-1.26-0.84-2.02
			c0-0.76,0.3-1.48,0.84-2.02l3.42-3.42c-1.28-2.15-2.23-4.46-2.85-6.9h-4.84c-1.57,0-2.85-1.28-2.85-2.85v-3.65
			c0-0.38,0.31-0.69,0.69-0.69c0.38,0,0.69,0.31,0.69,0.69v3.65c0,0.81,0.66,1.47,1.47,1.47h5.39c0.32,0,0.6,0.22,0.67,0.54
			c0.62,2.66,1.66,5.18,3.1,7.48c0.17,0.27,0.13,0.63-0.1,0.86l-3.81,3.81c-0.28,0.28-0.43,0.65-0.43,1.04
			c0,0.39,0.15,0.76,0.43,1.04l5.17,5.17c0.28,0.28,0.65,0.43,1.04,0.43c0.39,0,0.76-0.15,1.04-0.43l3.81-3.81
			c0.23-0.23,0.58-0.27,0.86-0.1c2.31,1.44,4.83,2.48,7.49,3.1c0.31,0.07,0.54,0.35,0.54,0.67v5.39c0,0.81,0.66,1.47,1.47,1.47h7.31
			c0.81,0,1.47-0.66,1.47-1.47v-5.39c0-0.32,0.22-0.6,0.54-0.67c2.66-0.62,5.18-1.66,7.49-3.1c0.27-0.17,0.63-0.13,0.86,0.1
			l3.81,3.81c0.57,0.57,1.5,0.57,2.08,0l5.17-5.17c0.57-0.57,0.57-1.5,0-2.08l-3.81-3.81c-0.23-0.23-0.27-0.58-0.1-0.86
			c1.44-2.31,2.48-4.83,3.1-7.48c0.07-0.31,0.35-0.54,0.67-0.54h5.39c0.81,0,1.47-0.66,1.47-1.47v-3.65c0-0.38,0.31-0.69,0.69-0.69
			c0.38,0,0.69,0.31,0.69,0.69v3.65c0,1.57-1.28,2.85-2.85,2.85h-4.84c-0.62,2.43-1.58,4.75-2.85,6.9l3.42,3.42
			c0.54,0.54,0.84,1.26,0.84,2.02c0,0.76-0.3,1.48-0.84,2.02l-5.17,5.17c-1.11,1.11-2.92,1.11-4.04,0l-3.42-3.42
			c-2.15,1.28-4.47,2.23-6.9,2.85v4.84C58.18,105.12,56.9,106.4,55.32,106.4z"/>
		<path class="st0" d="M51.67,88.75c-8.55,0-15.51-6.96-15.51-15.51c0-0.38,0.31-0.69,0.69-0.69s0.69,0.31,0.69,0.69
			c0,7.79,6.34,14.12,14.12,14.12c7.79,0,14.12-6.34,14.12-14.12c0-0.38,0.31-0.69,0.69-0.69c0.38,0,0.69,0.31,0.69,0.69
			C67.18,81.8,60.22,88.75,51.67,88.75z"/>
		<path class="st0" d="M51.67,79.95c-3.7,0-6.7-3.01-6.7-6.7c0-0.38,0.31-0.69,0.69-0.69s0.69,0.31,0.69,0.69
			c0,2.93,2.38,5.32,5.32,5.32c2.93,0,5.32-2.38,5.32-5.32c0-0.38,0.31-0.69,0.69-0.69s0.69,0.31,0.69,0.69
			C58.37,76.94,55.37,79.95,51.67,79.95z"/>
	</g>
</g>
</svg>
