<?xml version="1.0" encoding="utf-8"?>
<!-- Generator: Adobe Illustrator 25.3.1, SVG Export Plug-In . SVG Version: 6.00 Build 0)  -->
<svg version="1.1" id="Layer_1" xmlns="http://www.w3.org/2000/svg" xmlns:xlink="http://www.w3.org/1999/xlink" x="0px" y="0px"
	 viewBox="0 0 100 120" style="enable-background:new 0 0 100 120;" xml:space="preserve">
<style type="text/css">
	.st0{fill:none;stroke:#2C466A;stroke-miterlimit:10;}
</style>
<g>
	<g>
		<path class="st0" d="M55.73,82.44c-2.18,3.47-7.98,0.59-7.98,0.59L28.4,69.94l-1.33,3.85l-9.99-0.15l3.46-26.14l9.98,1.44
			l12.01-0.56"/>
		<path class="st0" d="M55.73,82.44c-2.18,3.47-7.98,0.59-7.98,0.59L28.4,69.94l-1.33,3.85l-9.99-0.15l3.46-26.14l9.98,1.44
			l12.01-0.56"/>
		<path class="st0" d="M28.4,69.94c0,0,3.59-16.5,2.12-21"/>
		<path class="st0" d="M48.61,76.49l4.42,3.52c0,0,6.21,5.09,9.41,0.7c0,0,0.69-1.17,0.73-1.53"/>
		<path class="st0" d="M53.02,72.13l4.42,3.52c0,0,6.79,6.66,11.14,0.64l0.47-0.95"/>
		<path class="st0" d="M58.36,68.01c2.83,2.97,6.88,5.99,10.89,6.94c2,0.48,3.9-1.6,3.38-3.52c-0.57-2.11-2.55-3.72-4.24-4.91
			c-4.8-3.4-16.68-10.82-16.68-10.82l-4.09,0.79c-8.99,12.93-13.03-1.41-5.1-8.11c7.94-6.7,32.59,3,32.59,3"/>
		<path class="st0" d="M76.4,68.21c0,0-3.45,5.19-4.55,5.96"/>
		<path class="st0" d="M77.46,71.15c0,0-3.59-16.5-2.12-21l9.98-1.44l3.46,26.14L78.79,75L77.46,71.15z"/>
	</g>
</g>
</svg>
