<?xml version="1.0" encoding="utf-8"?>
<!-- Generator: Adobe Illustrator 25.3.1, SVG Export Plug-In . SVG Version: 6.00 Build 0)  -->
<svg version="1.1" id="Layer_1" xmlns="http://www.w3.org/2000/svg" xmlns:xlink="http://www.w3.org/1999/xlink" x="0px" y="0px"
	 viewBox="0 0 100 120" style="enable-background:new 0 0 100 120;" xml:space="preserve">
<style type="text/css">
	.st0{fill:none;stroke:#2C466A;stroke-miterlimit:10;}
</style>
<g>
	<path class="st0" d="M77.19,44.01V25.49c0-1.28-1.04-2.32-2.32-2.32H63.3"/>
	<path class="st0" d="M35.51,23.17H23.93c-1.28,0-2.32,1.04-2.32,2.32v69.47c0,1.28,1.04,2.32,2.32,2.32h50.94
		c1.28,0,2.32-1.04,2.32-2.32"/>
	<polyline class="st0" points="72.56,41.7 72.56,27.8 65.61,27.8 	"/>
	<polyline class="st0" points="33.19,27.8 26.25,27.8 26.25,41.7 	"/>
	<path class="st0" d="M58.67,27.8v-4.63h-5.27c0.4-0.68,0.64-1.47,0.64-2.32c0-2.56-2.07-4.63-4.63-4.63
		c-2.56,0-4.63,2.07-4.63,4.63c0,0.85,0.24,1.63,0.64,2.32h-5.27v4.63c-2.56,0-4.63,2.07-4.63,4.63h4.63h18.52h4.63
		C63.3,29.88,61.22,27.8,58.67,27.8z"/>
	<line class="st0" x1="44.77" y1="27.8" x2="58.67" y2="27.8"/>
	<g>
		<line class="st0" x1="44.77" y1="46.33" x2="49.4" y2="46.33"/>
		<line class="st0" x1="54.04" y1="46.33" x2="63.3" y2="46.33"/>
		<line class="st0" x1="44.77" y1="55.59" x2="58.67" y2="55.59"/>
		<line class="st0" x1="44.77" y1="64.85" x2="49.4" y2="64.85"/>
		<line class="st0" x1="44.77" y1="74.12" x2="52.88" y2="74.12"/>
	</g>
	<rect x="35.51" y="44.01" class="st0" width="4.63" height="4.63"/>
	<rect x="35.51" y="53.27" class="st0" width="4.63" height="4.63"/>
	<rect x="35.51" y="62.54" class="st0" width="4.63" height="4.63"/>
	<rect x="35.51" y="71.8" class="st0" width="4.63" height="4.63"/>
	<line class="st0" x1="77.19" y1="94.96" x2="77.19" y2="83.38"/>
	<g>
		<path class="st0" d="M67.54,75.73l-9.82-9.82c-0.68-0.68-1.78-0.68-2.46,0l0,0c-0.68,0.68-0.68,1.78,0,2.46l9.82,9.82
			c0.68,0.68,1.78,0.68,2.46,0l0,0C68.22,77.51,68.22,76.41,67.54,75.73z"/>
		<path class="st0" d="M79.82,58.54l2.46,2.46c0.68,0.68,1.78,0.68,2.46,0l0,0c0.68-0.68,0.68-1.78,0-2.46l-9.82-9.82
			c-0.68-0.68-1.78-0.68-2.46,0l0,0c-0.68,0.68-0.68,1.78,0,2.46l4.91,4.91"/>
		<line class="st0" x1="72.45" y1="51.17" x2="57.72" y2="65.9"/>
		<line class="st0" x1="67.54" y1="75.73" x2="82.28" y2="60.99"/>
		<path class="st0" d="M76.75,66.52l-3.68,3.68l15.55,17.62c1.56,1.76,4.28,1.85,5.94,0.19l0,0c1.66-1.66,1.58-4.39-0.19-5.94
			L79.36,68.82"/>
	</g>
	<polyline class="st0" points="26.25,46.33 26.25,91.48 72.56,91.48 72.56,81.06 	"/>
</g>
</svg>
